<svg id="visual" viewBox="0 0 900 600" width="900" height="600" xmlns="http://www.w3.org/2000/svg" xmlns:xlink="http://www.w3.org/1999/xlink" version="1.1"><rect x="0" y="0" width="900" height="600" fill="#202731"></rect><path d="M0 434L21.5 422.5C43 411 86 388 128.8 381.7C171.7 375.3 214.3 385.7 257.2 396C300 406.3 343 416.7 385.8 415C428.7 413.3 471.3 399.7 514.2 399.8C557 400 600 414 642.8 418.2C685.7 422.3 728.3 416.7 771.2 415.2C814 413.7 857 416.3 878.5 417.7L900 419L900 601L878.5 601C857 601 814 601 771.2 601C728.3 601 685.7 601 642.8 601C600 601 557 601 514.2 601C471.3 601 428.7 601 385.8 601C343 601 300 601 257.2 601C214.3 601 171.7 601 128.8 601C86 601 43 601 21.5 601L0 601Z" fill="#fa7268"></path><path d="M0 417L21.5 417.7C43 418.3 86 419.7 128.8 420.8C171.7 422 214.3 423 257.2 425C300 427 343 430 385.8 425.3C428.7 420.7 471.3 408.3 514.2 406.5C557 404.7 600 413.3 642.8 423.5C685.7 433.7 728.3 445.3 771.2 451C814 456.7 857 456.3 878.5 456.2L900 456L900 601L878.5 601C857 601 814 601 771.2 601C728.3 601 685.7 601 642.8 601C600 601 557 601 514.2 601C471.3 601 428.7 601 385.8 601C343 601 300 601 257.2 601C214.3 601 171.7 601 128.8 601C86 601 43 601 21.5 601L0 601Z" fill="#ef5f67"></path><path d="M0 467L21.5 468.2C43 469.3 86 471.7 128.8 466.7C171.7 461.7 214.3 449.3 257.2 448.7C300 448 343 459 385.8 463.8C428.7 468.7 471.3 467.3 514.2 466.7C557 466 600 466 642.8 462C685.7 458 728.3 450 771.2 448.3C814 446.7 857 451.3 878.5 453.7L900 456L900 601L878.5 601C857 601 814 601 771.2 601C728.3 601 685.7 601 642.8 601C600 601 557 601 514.2 601C471.3 601 428.7 601 385.8 601C343 601 300 601 257.2 601C214.3 601 171.7 601 128.8 601C86 601 43 601 21.5 601L0 601Z" fill="#e34c67"></path><path d="M0 511L21.5 507.8C43 504.7 86 498.3 128.8 503.3C171.7 508.3 214.3 524.7 257.2 531.2C300 537.7 343 534.3 385.8 533.2C428.7 532 471.3 533 514.2 526.7C557 520.3 600 506.7 642.8 505.7C685.7 504.7 728.3 516.3 771.2 520.2C814 524 857 520 878.5 518L900 516L900 601L878.5 601C857 601 814 601 771.2 601C728.3 601 685.7 601 642.8 601C600 601 557 601 514.2 601C471.3 601 428.7 601 385.8 601C343 601 300 601 257.2 601C214.3 601 171.7 601 128.8 601C86 601 43 601 21.5 601L0 601Z" fill="#d53867"></path><path d="M0 545L21.5 541.8C43 538.7 86 532.3 128.8 535C171.7 537.7 214.3 549.3 257.2 550.5C300 551.7 343 542.3 385.8 540.7C428.7 539 471.3 545 514.2 545.5C557 546 600 541 642.8 542.8C685.7 544.7 728.3 553.3 771.2 552.2C814 551 857 540 878.5 534.5L900 529L900 601L878.5 601C857 601 814 601 771.2 601C728.3 601 685.7 601 642.8 601C600 601 557 601 514.2 601C471.3 601 428.7 601 385.8 601C343 601 300 601 257.2 601C214.3 601 171.7 601 128.8 601C86 601 43 601 21.5 601L0 601Z" fill="#c62368"></path></svg>