<svg id="visual" viewBox="0 0 900 600" width="900" height="600" xmlns="http://www.w3.org/2000/svg" xmlns:xlink="http://www.w3.org/1999/xlink" version="1.1"><rect x="0" y="0" width="900" height="600" fill="#202731"></rect><path d="M0 382L21.5 392.2C43 402.3 86 422.7 128.8 421.8C171.7 421 214.3 399 257.2 385.5C300 372 343 367 385.8 377.7C428.7 388.3 471.3 414.7 514.2 423.5C557 432.3 600 423.7 642.8 408.3C685.7 393 728.3 371 771.2 361.5C814 352 857 355 878.5 356.5L900 358L900 601L878.5 601C857 601 814 601 771.2 601C728.3 601 685.7 601 642.8 601C600 601 557 601 514.2 601C471.3 601 428.7 601 385.8 601C343 601 300 601 257.2 601C214.3 601 171.7 601 128.8 601C86 601 43 601 21.5 601L0 601Z" fill="#fa7268"></path><path d="M0 416L21.5 412.3C43 408.7 86 401.3 128.8 411.2C171.7 421 214.3 448 257.2 453.7C300 459.3 343 443.7 385.8 434.2C428.7 424.7 471.3 421.3 514.2 420.7C557 420 600 422 642.8 422.5C685.7 423 728.3 422 771.2 421.2C814 420.3 857 419.7 878.5 419.3L900 419L900 601L878.5 601C857 601 814 601 771.2 601C728.3 601 685.7 601 642.8 601C600 601 557 601 514.2 601C471.3 601 428.7 601 385.8 601C343 601 300 601 257.2 601C214.3 601 171.7 601 128.8 601C86 601 43 601 21.5 601L0 601Z" fill="#f871a1"></path><path d="M0 453L21.5 453C43 453 86 453 128.8 461.2C171.7 469.3 214.3 485.7 257.2 494.8C300 504 343 506 385.8 501.2C428.7 496.3 471.3 484.7 514.2 481.7C557 478.7 600 484.3 642.8 481C685.7 477.7 728.3 465.3 771.2 465.7C814 466 857 479 878.5 485.5L900 492L900 601L878.5 601C857 601 814 601 771.2 601C728.3 601 685.7 601 642.8 601C600 601 557 601 514.2 601C471.3 601 428.7 601 385.8 601C343 601 300 601 257.2 601C214.3 601 171.7 601 128.8 601C86 601 43 601 21.5 601L0 601Z" fill="#d883d4"></path><path d="M0 509L21.5 514.2C43 519.3 86 529.7 128.8 531.2C171.7 532.7 214.3 525.3 257.2 521.8C300 518.3 343 518.7 385.8 515.5C428.7 512.3 471.3 505.7 514.2 502.2C557 498.7 600 498.3 642.8 502.8C685.7 507.3 728.3 516.7 771.2 517.7C814 518.7 857 511.3 878.5 507.7L900 504L900 601L878.5 601C857 601 814 601 771.2 601C728.3 601 685.7 601 642.8 601C600 601 557 601 514.2 601C471.3 601 428.7 601 385.8 601C343 601 300 601 257.2 601C214.3 601 171.7 601 128.8 601C86 601 43 601 21.5 601L0 601Z" fill="#9e9af3"></path><path d="M0 530L21.5 535.8C43 541.7 86 553.3 128.8 552.8C171.7 552.3 214.3 539.7 257.2 537.2C300 534.7 343 542.3 385.8 544.8C428.7 547.3 471.3 544.7 514.2 547.8C557 551 600 560 642.8 562.3C685.7 564.7 728.3 560.3 771.2 557.7C814 555 857 554 878.5 553.5L900 553L900 601L878.5 601C857 601 814 601 771.2 601C728.3 601 685.7 601 642.8 601C600 601 557 601 514.2 601C471.3 601 428.7 601 385.8 601C343 601 300 601 257.2 601C214.3 601 171.7 601 128.8 601C86 601 43 601 21.5 601L0 601Z" fill="#4facf7"></path></svg>