<svg id="visual" viewBox="0 0 900 600" width="900" height="600" xmlns="http://www.w3.org/2000/svg" xmlns:xlink="http://www.w3.org/1999/xlink" version="1.1"><path d="M0 379L129 379L129 420L257 420L257 378L386 378L386 352L514 352L514 418L643 418L643 387L771 387L771 432L900 432L900 412L900 601L900 601L771 601L771 601L643 601L643 601L514 601L514 601L386 601L386 601L257 601L257 601L129 601L129 601L0 601Z" fill="#9dd0cc"></path><path d="M0 428L129 428L129 454L257 454L257 415L386 415L386 474L514 474L514 461L643 461L643 428L771 428L771 483L900 483L900 428L900 601L900 601L771 601L771 601L643 601L643 601L514 601L514 601L386 601L386 601L257 601L257 601L129 601L129 601L0 601Z" fill="#85bdb5"></path><path d="M0 480L129 480L129 465L257 465L257 460L386 460L386 498L514 498L514 518L643 518L643 512L771 512L771 517L900 517L900 509L900 601L900 601L771 601L771 601L643 601L643 601L514 601L514 601L386 601L386 601L257 601L257 601L129 601L129 601L0 601Z" fill="#6faa9d"></path><path d="M0 511L129 511L129 525L257 525L257 531L386 531L386 513L514 513L514 545L643 545L643 522L771 522L771 548L900 548L900 534L900 601L900 601L771 601L771 601L643 601L643 601L514 601L514 601L386 601L386 601L257 601L257 601L129 601L129 601L0 601Z" fill="#5a9786"></path></svg>